HIERARCHY
ROOT Hips
{
	OFFSET 0.000000 0.000000 0.000000
	CHANNELS 6 Xposition Yposition Zposition Zrotation Yrotation Xrotation 
	JOINT LHipJoint
	{
		OFFSET 0.000000 0.000000 0.000000
		CHANNELS 3 Zrotation Yrotation Xrotation
		JOINT LeftUpLeg
		{
			OFFSET 1.363060 -1.794630 0.839290
			CHANNELS 3 Zrotation Yrotation Xrotation
			JOINT LeftLeg
			{
				OFFSET 2.448110 -6.726130 0.000000
				CHANNELS 3 Zrotation Yrotation Xrotation
				JOINT LeftFoot
				{
					OFFSET 2.562200 -7.039590 0.000000
					CHANNELS 3 Zrotation Yrotation Xrotation
					JOINT LeftToeBase
					{
						OFFSET 0.157640 -0.433110 2.322550
						CHANNELS 3 Zrotation Yrotation Xrotation
						End Site
						{
							OFFSET 0.000000 0.000000 0.000000
						}
					}
				}
			}
		}
	}
	JOINT RHipJoint
	{
		OFFSET 0.000000 0.000000 0.000000
		CHANNELS 3 Zrotation Yrotation Xrotation
		JOINT RightUpLeg
		{
			OFFSET -1.305520 -1.794630 0.839290
			CHANNELS 3 Zrotation Yrotation Xrotation
			JOINT RightLeg
			{
				OFFSET -2.542530 -6.985550 0.000000
				CHANNELS 3 Zrotation Yrotation Xrotation
				JOINT RightFoot
				{
					OFFSET -2.568260 -7.056230 0.000000
					CHANNELS 3 Zrotation Yrotation Xrotation
					JOINT RightToeBase
					{
						OFFSET -0.164730 -0.452590 2.363150
						CHANNELS 3 Zrotation Yrotation Xrotation
						End Site
						{
							OFFSET 0.000000 0.000000 0.000000
						}
					}
				}
			}
		}
	}
}
MOTION
Frames: 11
Frame Time: 0.008333
5.452100 15.725519 1.855406 -18.213003 -86.938932 51.725373 -13.809507 2.416058 -3.453002 0.333192 10.650435 -16.460591 -0.023061 3.069397 53.425165 2.394578 15.964595 2.290993 2.375999 0.000000 -38.360400 6.408112 0.225771 2.400334 13.188361 10.552539 -70.444538 1.759648 -3.654394 47.369366 -1.955206 -4.590060 -13.051844 0.024900 -0.000000 -23.170400
5.234355 15.599825 1.847445 -25.899963 -87.082250 58.800895 -14.082211 2.267137 -3.592912 0.890701 10.587465 -16.595788 0.144401 3.298451 56.150085 2.456605 16.348447 0.974786 2.109000 0.000000 -37.369500 6.203991 0.242217 1.983158 13.856935 10.930400 -70.479012 1.431404 -3.967580 51.776643 -2.088986 -4.711090 -15.360529 0.389400 -0.000000 -20.895200
5.022415 15.486213 1.838406 -32.920094 -87.105081 65.212432 -14.324002 2.083383 -3.740608 1.385929 10.323295 -16.803628 0.330285 3.528414 58.907427 2.515447 16.703821 -0.439613 1.798700 0.000000 -36.311100 6.030307 0.227942 1.556928 14.566056 11.205285 -70.180546 1.173597 -4.212206 55.567484 -2.245442 -4.904459 -17.776112 0.778099 0.000000 -19.304700
4.815318 15.385594 1.827428 -38.792632 -87.037905 70.496581 -14.518056 1.885354 -3.887926 1.784688 9.859071 -17.116537 0.528406 3.761791 61.679054 2.573869 17.051472 -1.957555 1.445200 -0.000000 -35.126300 5.902086 0.198328 1.123541 15.290978 11.368872 -69.587312 0.981490 -4.404945 58.758829 -2.419920 -5.157328 -20.226967 1.190801 -0.000000 -18.346400
4.612082 15.298330 1.813668 -43.305259 -86.923495 74.451704 -14.658992 1.691123 -4.026372 2.054398 9.207068 -17.559680 0.733879 3.999003 64.443908 2.635681 17.417660 -3.577662 1.048600 -0.000000 -33.788900 5.825015 0.169911 0.686945 15.994841 11.417995 -68.745445 0.845373 -4.555351 61.387007 -2.606667 -5.458111 -22.636433 1.623200 0.000000 -17.937400
4.411555 15.224198 1.796449 -46.461976 -86.803749 77.089293 -14.748526 1.512116 -4.148456 2.170863 8.390415 -18.151266 0.943190 4.237176 67.179940 2.705349 17.829535 -5.294167 0.606900 -0.000000 -32.261800 5.798841 0.154640 0.254032 16.637543 11.356058 -67.708539 0.753568 -4.669334 63.503847 -2.799237 -5.796784 -24.932602 2.067900 -0.000000 -17.958700
4.212383 15.162476 1.775437 -48.380772 -86.709910 78.538569 -14.791435 1.352350 -4.248867 2.123720 7.440469 -18.904329 1.153547 4.470991 69.864745 2.787429 18.310217 -7.095827 0.116200 -0.000001 -30.512000 5.820269 0.158845 -0.166576 17.185174 11.195393 -66.535131 0.694310 -4.751598 65.173111 -2.991598 -6.166588 -27.058262 2.515700 -0.000000 -18.251700
4.013466 15.112184 1.750562 -49.220071 -86.661659 78.962806 -14.792962 1.211175 -4.323042 1.916855 6.395860 -19.825992 1.362486 4.693966 72.475654 2.885993 18.875904 -8.962051 -0.427500 0.000000 -28.531399 5.884932 0.184522 -0.563475 17.614492 10.957722 -65.282401 0.656539 -4.806439 66.465875 -3.178962 -6.564251 -28.976565 2.958900 -0.000000 -18.634200
3.813737 15.072154 1.722091 -49.145572 -86.665941 78.533996 -14.758765 1.083940 -4.368106 1.567782 5.298880 -20.919971 1.567389 4.899751 74.989609 3.003592 19.531408 -10.865979 -1.027500 0.000000 -26.331700 5.987220 0.229898 -0.924757 17.916022 10.672886 -64.002969 0.630737 -4.838228 67.455545 -3.358418 -6.989477 -30.672214 3.392200 0.000000 -18.935200
3.612357 15.041251 1.690592 -48.324000 -86.720709 77.423047 -14.694684 0.963901 -4.382241 1.104192 4.191643 -22.185932 1.765442 5.082917 77.382976 3.140495 20.268236 -12.775191 -1.683400 0.000000 -23.951500 6.120361 0.290286 -1.238854 18.093550 10.374997 -62.740168 0.609276 -4.851157 68.211285 -3.529168 -7.444796 -32.148087 3.814100 0.000000 -19.032400
3.408951 15.018479 1.656892 -46.932913 -86.817504 75.808914 -14.606427 0.842558 -4.366376 0.559537 3.112645 -23.619554 1.953677 5.239836 79.632491 3.294094 21.063255 -14.655104 -2.389700 0.000000 -21.451000 6.276394 0.359237 -1.497761 18.162052 10.097128 -61.525778 0.587037 -4.849299 68.792663 -3.692077 -7.932822 -33.422317 4.226200 -0.000000 -18.871299
